<svg xmlns="http://www.w3.org/2000/svg" width="429.9" height="36.58" viewBox="0 0 429.9 36.58"><g transform="translate(-207.1 -300)"><g transform="translate(207.1 300)"><g transform="translate(0 0)"><g transform="translate(0 6.638)"><path d="M86.067,112a14.971,14.971,0,1,0,14.967,14.975A14.986,14.986,0,0,0,86.067,112Zm.008,28c-.024,0-.057.008-.089.008a.394.394,0,0,1-.1-.008,13.047,13.047,0,0,1-12.838-12.612.656.656,0,0,1-.089-.332.627.627,0,0,1,.089-.324A13.037,13.037,0,0,1,85.93,113.951h.146a13.024,13.024,0,1,1,0,26.049Z" transform="translate(-71.1 -112)" fill="#fff"/></g><g transform="translate(13.996 3.4)"><path d="M244,73.975c.324-.016.656-.024.971-.024s.648.008.971.024V72H244Z" transform="translate(-244 -72)" fill="#fff"/></g><g transform="translate(11.486)"><path d="M213.194,32.1h6.573a.223.223,0,0,0,.194-.194V30.17a.2.2,0,0,0-.194-.17h-6.573a.2.2,0,0,0-.194.17v1.74A.223.223,0,0,0,213.194,32.1Z" transform="translate(-213 -30)" fill="#fff"/></g><g transform="translate(3.246 9.892)"><path d="M132.878,163.355h1.765A11.742,11.742,0,0,0,123.488,152.2v1.684a.648.648,0,1,1-1.3,0v-1.676A11.753,11.753,0,0,0,111.2,163.355h1.6a.648.648,0,1,1,0,1.3h-1.595a11.74,11.74,0,0,0,10.985,10.976v-1.668a.648.648,0,0,1,1.3,0v1.684a11.753,11.753,0,0,0,11.146-10.993h-1.757a.648.648,0,1,1,0-1.3Zm-9.957-.065a3.635,3.635,0,0,1,.648,7.212v1.19a.648.648,0,0,1-1.3,0V170.5a3.641,3.641,0,0,1-2.987-3.578.648.648,0,1,1,1.3,0,2.346,2.346,0,0,0,2.315,2.339h.049a2.339,2.339,0,0,0-.024-4.679,3.635,3.635,0,0,1-.648-7.212V156.32a.648.648,0,1,1,1.3,0v1.052a3.641,3.641,0,0,1,2.987,3.578.648.648,0,0,1-1.3,0,2.339,2.339,0,1,0-2.339,2.339Z" transform="translate(-111.2 -152.2)" fill="#fff"/></g><g transform="translate(26.47 8.491)"><path d="M401.144,136.406a.156.156,0,0,0,0-.227l-1.23-1.23a.156.156,0,0,0-.227,0l-1.587,1.587a16.631,16.631,0,0,1,1.368,1.554Z" transform="translate(-398.1 -134.9)" fill="#fff"/></g></g></g><text transform="translate(251 329)" fill="#fff" font-size="23" font-family="Roboto-Medium, Roboto" font-weight="500" letter-spacing="0.06em"><tspan x="0" y="0">Stracker | Personal Stock Tracker</tspan></text></g></svg>