<svg xmlns="http://www.w3.org/2000/svg" width="369.8" height="451.9" viewBox="0 0 369.8 451.9">
  <g id="stracker--blue" transform="translate(-71.1 -30)">
    <g id="Group_11" data-name="Group 11">
      <g id="Group_2" data-name="Group 2">
        <g id="Group_1" data-name="Group 1">
          <path id="Path_1" data-name="Path 1" d="M256,112C154,112,71.1,195,71.1,297s83,184.9,184.9,184.9,184.9-83,184.9-184.9C440.9,195,358,112,256,112Zm.1,345.9c-.3,0-.7.1-1.1.1a4.868,4.868,0,0,1-1.2-.1c-86-1.2-155.9-70.2-158.6-155.8a8.107,8.107,0,0,1-1.1-4.1,7.742,7.742,0,0,1,1.1-4c1.6-86.8,72.2-157,159.1-157.9h1.8c88.7,0,161,72.2,161,161C417,385.7,344.8,457.9,256.1,457.9Z" fill="#3f51b5"/>
        </g>
      </g>
      <g id="Group_4" data-name="Group 4">
        <g id="Group_3" data-name="Group 3">
          <path id="Path_2" data-name="Path 2" d="M244,96.4c4-.2,8.1-.3,12-.3s8,.1,12,.3V72H244Z" fill="#3f51b5"/>
        </g>
      </g>
      <g id="Group_6" data-name="Group 6">
        <g id="Group_5" data-name="Group 5">
          <path id="Path_3" data-name="Path 3" d="M215.4,56h81.2a2.76,2.76,0,0,0,2.4-2.4V32.1a2.474,2.474,0,0,0-2.4-2.1H215.4a2.474,2.474,0,0,0-2.4,2.1V53.6A2.76,2.76,0,0,0,215.4,56Z" fill="#3f51b5"/>
        </g>
      </g>
      <g id="Group_8" data-name="Group 8">
        <g id="Group_7" data-name="Group 7">
          <path id="Path_4" data-name="Path 4" d="M379,290h21.8c-3.5-74.4-63.4-134.3-137.8-137.8V173a8,8,0,0,1-16,0V152.3c-73.4,4.5-132.3,64-135.8,137.7H131a8,8,0,0,1,0,16H111.3c4.5,72.8,62.9,131.2,135.7,135.6V421a8,8,0,0,1,16,0v20.8c73.7-3.5,133.1-62.3,137.7-135.8H379a8,8,0,0,1,0-16Zm-123-.8a44.91,44.91,0,0,1,8,89.1V393a8,8,0,0,1-16,0V378.3a44.982,44.982,0,0,1-36.9-44.2,8,8,0,0,1,16,0A28.982,28.982,0,0,0,255.7,363h.6a28.9,28.9,0,0,0-.3-57.8,44.91,44.91,0,0,1-8-89.1v-13a8,8,0,1,1,16,0v13a44.982,44.982,0,0,1,36.9,44.2,8,8,0,0,1-16,0A28.9,28.9,0,1,0,256,289.2Z" fill="#3f51b5"/>
        </g>
      </g>
      <g id="Group_10" data-name="Group 10">
        <g id="Group_9" data-name="Group 9">
          <path id="Path_5" data-name="Path 5" d="M435.7,153.5a1.933,1.933,0,0,0,0-2.8l-15.2-15.2a1.933,1.933,0,0,0-2.8,0l-19.6,19.6A205.353,205.353,0,0,1,415,174.3Z" fill="#3f51b5"/>
        </g>
      </g>
    </g>
  </g>
</svg>
